<!DOCTYPE svg PUBLIC "-//W3C//DTD SVG 20010904//EN" "http://www.w3.org/TR/2001/REC-SVG-20010904/DTD/svg10.dtd">
<svg version="1.0" xmlns="http://www.w3.org/2000/svg" width="266px" height="34px" viewBox="0 0 2660 340" preserveAspectRatio="xMidYMid meet">
<g id="layer1" fill="#9fc2fd" stroke="none">
 <path d="M2080 170 l0 -150 40 0 40 0 0 110 0 110 40 0 40 0 0 -110 0 -110 45 0 45 0 1 123 0 122 62 -123 c34 -67 65 -122 69 -122 4 0 42 68 83 150 l75 150 -53 0 -53 0 -25 -51 -25 -51 -24 51 -23 51 -169 0 -168 0 0 -150z"/>
 </g>
<g id="layer2" fill="#ffffff" stroke="none">
 <path d="M1120 170 l0 -150 40 0 40 0 1 63 0 62 32 -62 31 -63 53 0 53 0 -37 75 -37 75 37 75 37 75 -53 0 -53 0 -31 -62 -32 -63 0 63 -1 62 -40 0 -40 0 0 -150z"/>
 <path d="M1410 170 l0 -150 40 0 40 0 1 133 0 132 67 -132 67 -133 75 0 76 0 25 51 25 51 24 -51 23 -51 54 0 c29 0 53 2 53 5 0 13 -146 295 -152 295 -4 0 -28 -39 -52 -87 -39 -77 -45 -84 -45 -56 -1 31 -3 32 -48 35 -73 5 -68 28 6 28 l61 0 20 40 20 40 -190 0 -190 0 0 -150z m308 -52 c-6 -18 -25 -20 -31 -3 -5 10 0 15 14 15 12 0 19 -5 17 -12z"/>
 </g>
<g id="layer3" fill="#ffd71c" stroke="none">
 <path d="M432 274 l-28 -55 -24 50 -23 51 -169 0 -168 0 0 -150 0 -150 125 0 125 0 -25 50 c-31 61 -31 60 0 60 24 0 25 2 26 68 l0 67 62 -122 c34 -68 65 -123 69 -123 4 0 33 50 63 110 l55 110 66 0 c48 0 65 -3 62 -12 -3 -7 -25 -14 -51 -16 l-47 -3 0 -95 0 -94 95 0 95 0 0 40 0 40 -55 0 c-42 0 -55 3 -55 15 0 11 11 15 38 15 36 0 39 3 66 58 l28 57 57 -112 56 -113 52 0 53 0 0 40 c0 33 -4 40 -19 40 -10 0 -21 7 -25 15 -4 11 1 15 19 15 22 0 25 4 25 39 l0 40 -47 3 c-73 5 -68 28 6 28 61 0 61 0 81 40 11 21 20 42 20 45 0 3 -130 5 -290 5 l-290 0 -28 -56z m-252 -49 c0 -11 -11 -15 -40 -15 -29 0 -40 4 -40 15 0 11 11 15 40 15 29 0 40 -4 40 -15z m-60 -117 c0 -5 -4 -8 -10 -8 -5 0 -10 10 -10 23 0 18 2 19 10 7 5 -8 10 -18 10 -22z"/>
 </g>

</svg>